<svg version="1.1" xmlns="http://www.w3.org/2000/svg" xmlns:xlink="http://www.w3.org/1999/xlink" preserveAspectRatio="xMidYMid meet" viewBox="622 311 143 143">
<g>
    <g transform="translate(646 440) scale(1 1) rotate(0 0 0)"><text dy="0" dominant-baseline="auto" alignment-baseline="auto" font-family="Fira Code" font-size="32px" fill="#00B9F1" letter-spacing="0" font-weight="bold" font-style="normal"  data-font-weight="bold" data-font-style="bold">hsk00</text></g>
</g>
<g>
    <g transform="translate(628 299) scale(0.8667827620412212 0.8667827620412212) rotate(0 0 0)">
<g>
	<path fill="#00B9F1" d="M109.243,113.365H39.32c9.22,8.688,21.473,14.041,34.958,14.058   C87.765,127.406,100.015,122.054,109.243,113.365" data-part-id="logo__item--logo_0__0"></path>
	<path fill="#00B9F1" d="M109.258,35.515c-9.22-8.697-21.478-14.064-34.979-14.081c-13.503,0.017-25.761,5.384-34.981,14.081   H109.258z" data-part-id="logo__item--logo_0__1"></path>
	<path fill="#093553" d="M132.818,35.515h-17.902c-10.194-11.152-24.651-18.182-40.709-18.182c-16.067,0-30.518,7.03-40.702,18.182   H16.741c-6.172,0-11.182,5.01-11.182,11.183v55.476c0,6.175,5.01,11.191,11.182,11.191H33.52   c10.184,11.144,24.629,18.147,40.688,18.147c16.05,0,30.492-7.004,40.688-18.147h17.924c6.182,0,11.182-5.017,11.182-11.191V46.698   C144,40.525,139,35.515,132.818,35.515 M74.207,21.427c0.021,0,0.048,0.006,0.07,0.006c13.501,0.018,25.763,5.384,34.979,14.082   h-69.96h-0.142C48.383,26.8,60.683,21.427,74.207,21.427 M39.178,113.365h0.142h69.923c-9.229,8.688-21.479,14.041-34.965,14.056   c-0.022,0-0.049,0.011-0.07,0.011C60.689,127.432,48.406,122.07,39.178,113.365 M139.935,102.174c0,3.925-3.199,7.123-7.122,7.123   h-17.918h-1.781h-3.877H39.178h-3.876H33.52H16.741c-3.923,0-7.12-3.198-7.12-7.123V46.688c0-3.923,3.197-7.098,7.12-7.098h12.237   h10.177h70.102h10.202h13.354c3.923,0,7.122,3.174,7.122,7.098V102.174z" data-part-id="logo__item--logo_0__2"></path>
	<path fill="#093553" d="M122.11,62.073c-0.687,0-1.345,0.041-1.994,0.159c0.118-0.64,0.168-1.306,0.168-1.962   c0-6.688-5.438-12.148-12.12-12.148c-6.694,0-12.146,5.461-12.146,12.148c0,0.656,0.039,1.323,0.157,1.962   c-0.641-0.118-1.304-0.159-1.983-0.159c-6.69,0-12.142,5.452-12.142,12.141s5.451,12.141,12.142,12.141   c0.68,0,1.343-0.041,1.983-0.159c-0.118,0.64-0.157,1.307-0.157,1.962c0,6.69,5.452,12.148,12.146,12.148   c6.683,0,12.12-5.458,12.12-12.148c0-0.655-0.05-1.322-0.168-1.962c0.649,0.118,1.308,0.159,1.994,0.159   c6.68,0,12.118-5.452,12.118-12.141S128.79,62.073,122.11,62.073 M108.149,52.19c4.456,0,8.072,3.616,8.072,8.072   c0,4.464-3.616,8.086-8.072,8.086c-4.462,0-8.072-3.622-8.072-8.086C100.077,55.806,103.688,52.19,108.149,52.19 M94.197,82.295   c-4.463,0-8.08-3.618-8.08-8.09c0-4.455,3.617-8.072,8.08-8.072c4.464,0,8.082,3.617,8.082,8.072   C102.279,78.677,98.661,82.295,94.197,82.295 M108.149,96.24c-4.462,0-8.072-3.616-8.072-8.072c0-4.467,3.61-8.072,8.072-8.072   c4.456,0,8.072,3.605,8.072,8.072C116.222,92.624,112.605,96.24,108.149,96.24 M122.096,82.295c-4.464,0-8.073-3.618-8.073-8.09   c0-4.455,3.609-8.072,8.073-8.072s8.08,3.617,8.08,8.072C130.176,78.677,126.56,82.295,122.096,82.295" ></path>
	<path fill="#093553" d="M54.73,62.573v-7.922V50.59h-4.068H35.506h-4.06v4.061v7.922h-7.945h-4.068v4.06v15.163v4.061h4.068h7.945   v7.946v4.059h4.06h15.156h4.068v-4.059v-7.946h7.915h4.066v-4.061V66.633v-4.06h-4.066H54.73z M62.66,81.796H50.662v12.007H35.498   V81.796H23.501V66.641h11.997V54.643h15.164v11.999H62.66V81.796z"></path>
	<path fill="#0097C4" d="M132.812,39.59h-13.351h-10.202H39.156H28.978H16.741c-3.924,0-7.12,3.172-7.12,7.099v55.484   c0,3.925,3.196,7.123,7.12,7.123H33.52H35.3h3.877h70.059h3.876h1.782h17.917c3.924,0,7.121-3.198,7.121-7.123V46.689   C139.933,42.762,136.735,39.59,132.812,39.59 M66.713,66.631v15.167v4.058h-4.069H54.73v7.947v4.057h-4.068H35.507h-4.061v-4.057   v-7.947h-7.945h-4.068v-4.058V66.631v-4.057h4.068h7.945V54.65v-4.061h4.061h15.155h4.068v4.061v7.924h7.914h4.069V66.631z    M122.11,86.354c-0.687,0-1.345-0.04-1.993-0.16c0.117,0.644,0.167,1.308,0.167,1.964c0,6.689-5.438,12.147-12.119,12.147   c-6.695,0-12.147-5.458-12.147-12.147c0-0.656,0.039-1.32,0.157-1.964c-0.64,0.12-1.304,0.16-1.984,0.16   c-6.689,0-12.143-5.453-12.143-12.139c0-6.689,5.453-12.141,12.143-12.141c0.681,0,1.345,0.038,1.984,0.156   c-0.118-0.64-0.157-1.307-0.157-1.962c0-6.686,5.452-12.148,12.147-12.148c6.682,0,12.119,5.463,12.119,12.148   c0,0.656-0.05,1.322-0.167,1.962c0.648-0.118,1.307-0.156,1.993-0.156c6.68,0,12.118,5.452,12.118,12.141   C134.229,80.901,128.79,86.354,122.11,86.354" data-part-id="logo__item--logo_0__5"></path>
</g></g>
</g></svg>
